<?xml version="1.0" encoding="UTF-8"?>
<!DOCTYPE svg PUBLIC "-//W3C//DTD SVG 1.1//EN" "http://www.w3.org/Graphics/SVG/1.1/DTD/svg11.dtd">
<!-- Creator: CorelDRAW -->
<svg xmlns="http://www.w3.org/2000/svg" xml:space="preserve" width="8.5in" height="11in" version="1.1" style="shape-rendering:geometricPrecision; text-rendering:geometricPrecision; image-rendering:optimizeQuality; fill-rule:evenodd; clip-rule:evenodd"
viewBox="0 0 8500 11000"
 xmlns:xlink="http://www.w3.org/1999/xlink">
 <defs>
  <style type="text/css">
   <![CDATA[
    .fil9 {fill:#FEFEFE}
    .fil7 {fill:#FFF212}
    .fil10 {fill:#201E1E}
    .fil0 {fill:black}
    .fil4 {fill:#006DB8}
    .fil3 {fill:#2CAD42}
    .fil6 {fill:#AB7732}
    .fil1 {fill:#E62129}
    .fil5 {fill:white}
    .fil8 {fill:#201E1E;fill-rule:nonzero}
    .fil11 {fill:black;fill-rule:nonzero}
    .fil2 {fill:black;fill-rule:nonzero}
    .fil12 {fill:white;fill-rule:nonzero}
   ]]>
  </style>
 </defs>
 <g id="Layer_x0020_1">
  <metadata id="CorelCorpID_0Corel-Layer"/>
  <g id="Kabupaten_x0020_Tangerang_x0020__x005b_koleksilogo.com_x005d_.cdr">
   <path class="fil0" d="M5043 5643l-2 8c-70,260 -195,463 -435,593l0 1 -1 0c-38,18 -76,34 -115,49 -33,12 -65,24 -97,36 -40,16 -92,37 -115,74l-25 41 -25 -40c-24,-38 -76,-59 -115,-75 -33,-12 -65,-24 -97,-36 -39,-15 -78,-31 -116,-49l0 0 -1 -1c-239,-130 -364,-333 -434,-593l-3 -8 -9 0 0 -799 -141 -162 -5 -6 0 -21 0 -534 253 0 0 64 157 0 0 -64 252 0 0 64 158 0 0 -64 252 0 0 64 158 0 0 -64 252 0 0 64 157 0 0 -64 253 0 0 118 -1 0 0 416 0 21 -5 6 -141 162 0 799 -9 0z"/>
   <polygon class="fil1" points="3334,4148 3533,4148 3533,4212 3334,4212 "/>
   <path class="fil2" d="M3334 4145l202 0 0 71 -205 0 0 -71 3 0zm195 6l-191 0 0 58 191 0 0 -58z"/>
   <path class="fil1" d="M3744 4148l198 0 0 64 -198 0 0 -64zm410 0l198 0 0 64 -198 0 0 -64zm410 0l198 0 0 64 -198 0 0 -64zm409 0l199 0 0 64 -199 0 0 -64z"/>
   <path class="fil2" d="M3744 4145l202 0 0 71 -205 0 0 -71 3 0zm195 6l-191 0 0 58 191 0 0 -58zm215 -6l201 0 0 71 -204 0 0 -71 3 0zm195 6l-192 0 0 58 192 0 0 -58zm215 -6l201 0 0 71 -205 0 0 -71 4 0zm194 6l-191 0 0 58 191 0 0 -58zm215 -6l202 0 0 71 -205 0 0 -71 3 0zm195 6l-191 0 0 58 191 0 0 -58z"/>
   <path class="fil1" d="M3334 4212l98 0 0 74 -98 0 0 -74zm98 0l205 0 0 74 -205 0 0 -74zm205 0l205 0 0 74 -205 0 0 -74zm205 0l205 0 0 74 -205 0 0 -74zm205 0l205 0 0 74 -205 0 0 -74zm205 0l205 0 0 74 -205 0 0 -74zm205 0l205 0 0 74 -205 0 0 -74zm205 0l205 0 0 74 -205 0 0 -74zm205 0l206 0 0 74 -206 0 0 -74zm206 0l98 0 0 74 -98 0 0 -74z"/>
   <path class="fil2" d="M3334 4209l1840 0 0 80 -1843 0 0 -80 3 0zm95 7l-91 0 0 66 91 0 0 -66zm6 0l0 66 199 0 0 -66 -199 0zm205 0l0 66 199 0 0 -66 -199 0zm205 0l0 66 199 0 0 -66 -199 0zm205 0l0 66 199 0 0 -66 -199 0zm206 0l0 66 198 0 0 -66 -198 0zm205 0l0 66 198 0 0 -66 -198 0zm205 0l0 66 198 0 0 -66 -198 0zm205 0l0 66 198 0 0 -66 -198 0zm205 0l0 66 92 0 0 -66 -92 0z"/>
   <path class="fil1" d="M3334 4360l98 0 0 73 -98 0 0 -73zm98 0l205 0 0 73 -205 0 0 -73zm205 0l205 0 0 73 -205 0 0 -73zm205 0l205 0 0 73 -205 0 0 -73zm205 0l205 0 0 73 -205 0 0 -73zm205 0l205 0 0 73 -205 0 0 -73zm205 0l205 0 0 73 -205 0 0 -73zm205 0l205 0 0 73 -205 0 0 -73zm205 0l206 0 0 73 -206 0 0 -73zm206 0l98 0 0 73 -98 0 0 -73z"/>
   <path class="fil2" d="M3334 4357l1840 0 0 80 -1843 0 0 -80 3 0zm95 6l-91 0 0 67 91 0 0 -67zm6 0l0 67 199 0 0 -67 -199 0zm205 0l0 67 199 0 0 -67 -199 0zm205 0l0 67 199 0 0 -67 -199 0zm205 0l0 67 199 0 0 -67 -199 0zm206 0l0 67 198 0 0 -67 -198 0zm205 0l0 67 198 0 0 -67 -198 0zm205 0l0 67 198 0 0 -67 -198 0zm205 0l0 67 198 0 0 -67 -198 0zm205 0l0 67 92 0 0 -67 -92 0z"/>
   <path class="fil1" d="M3334 4508l98 0 0 73 -98 0 0 -73zm98 0l205 0 0 73 -205 0 0 -73zm205 0l205 0 0 73 -205 0 0 -73zm205 0l205 0 0 73 -205 0 0 -73zm205 0l205 0 0 73 -205 0 0 -73zm205 0l205 0 0 73 -205 0 0 -73zm205 0l205 0 0 73 -205 0 0 -73zm205 0l205 0 0 73 -205 0 0 -73zm205 0l206 0 0 73 -206 0 0 -73zm206 0l98 0 0 73 -98 0 0 -73z"/>
   <path class="fil2" d="M3334 4504l1840 0 0 80 -1843 0 0 -80 3 0zm95 7l-91 0 0 67 91 0 0 -67zm6 0l0 67 199 0 0 -67 -199 0zm205 0l0 67 199 0 0 -67 -199 0zm205 0l0 67 199 0 0 -67 -199 0zm205 0l0 67 199 0 0 -67 -199 0zm206 0l0 67 198 0 0 -67 -198 0zm205 0l0 67 198 0 0 -67 -198 0zm205 0l0 67 198 0 0 -67 -198 0zm205 0l0 67 198 0 0 -67 -198 0zm205 0l0 67 92 0 0 -67 -92 0z"/>
   <path class="fil1" d="M3334 4286l201 0 0 73 -201 0 0 -73zm201 0l205 0 0 73 -205 0 0 -73zm205 0l205 0 0 73 -205 0 0 -73zm205 0l205 0 0 73 -205 0 0 -73zm205 0l205 0 0 73 -205 0 0 -73zm205 0l205 0 0 73 -205 0 0 -73zm205 0l205 0 0 73 -205 0 0 -73zm205 0l205 0 0 73 -205 0 0 -73zm205 0l201 0 0 73 -201 0 0 -73z"/>
   <path class="fil2" d="M3334 4283l1840 0 0 80 -1843 0 0 -80 3 0zm197 6l-193 0 0 67 193 0 0 -67zm7 0l0 67 198 0 0 -67 -198 0zm205 0l0 67 199 0 0 -67 -199 0zm205 0l0 67 199 0 0 -67 -199 0zm205 0l0 67 199 0 0 -67 -199 0zm205 0l0 67 199 0 0 -67 -199 0zm206 0l0 67 198 0 0 -67 -198 0zm205 0l0 67 198 0 0 -67 -198 0zm205 0l0 67 194 0 0 -67 -194 0z"/>
   <path class="fil1" d="M3334 4434l201 0 0 73 -201 0 0 -73zm201 0l205 0 0 73 -205 0 0 -73zm205 0l205 0 0 73 -205 0 0 -73zm205 0l205 0 0 73 -205 0 0 -73zm205 0l205 0 0 73 -205 0 0 -73zm205 0l205 0 0 73 -205 0 0 -73zm205 0l205 0 0 73 -205 0 0 -73zm205 0l205 0 0 73 -205 0 0 -73zm205 0l201 0 0 73 -201 0 0 -73z"/>
   <path class="fil2" d="M3334 4430l1840 0 0 80 -1843 0 0 -80 3 0zm197 7l-193 0 0 67 193 0 0 -67zm7 0l0 67 198 0 0 -67 -198 0zm205 0l0 67 199 0 0 -67 -199 0zm205 0l0 67 199 0 0 -67 -199 0zm205 0l0 67 199 0 0 -67 -199 0zm205 0l0 67 199 0 0 -67 -199 0zm206 0l0 67 198 0 0 -67 -198 0zm205 0l0 67 198 0 0 -67 -198 0zm205 0l0 67 194 0 0 -67 -194 0z"/>
   <path class="fil1" d="M3334 4581l201 0 0 74 -201 0 0 -74zm201 0l205 0 0 74 -205 0 0 -74zm205 0l205 0 0 74 -205 0 0 -74zm205 0l205 0 0 74 -205 0 0 -74zm205 0l205 0 0 74 -205 0 0 -74zm205 0l205 0 0 74 -205 0 0 -74zm205 0l205 0 0 74 -205 0 0 -74zm205 0l205 0 0 74 -205 0 0 -74zm205 0l201 0 0 74 -201 0 0 -74z"/>
   <path class="fil2" d="M3334 4578l1840 0 0 80 -1843 0 0 -80 3 0zm197 7l-193 0 0 66 193 0 0 -66zm7 0l0 66 198 0 0 -66 -198 0zm205 0l0 66 199 0 0 -66 -199 0zm205 0l0 66 199 0 0 -66 -199 0zm205 0l0 66 199 0 0 -66 -199 0zm205 0l0 66 199 0 0 -66 -199 0zm206 0l0 66 198 0 0 -66 -198 0zm205 0l0 66 198 0 0 -66 -198 0zm205 0l0 66 194 0 0 -66 -194 0z"/>
   <path class="fil3" d="M3480 5616l0 -782 -132 -152c604,-1 1206,-1 1809,0l-132 152 0 782c-515,0 -1030,0 -1545,0z"/>
   <path class="fil4" d="M3912 6221c159,77 289,92 338,169l3 4 2 -4c49,-77 179,-92 338,-169 181,-99 336,-259 422,-577 -508,0 -1016,0 -1524,0 86,318 240,478 421,577z"/>
   <path class="fil5" d="M4621 6205c70,-42 136,-93 194,-161 -31,11 -59,33 -84,52 -18,14 -55,43 -79,43 -24,0 -60,-29 -78,-43 -35,-27 -76,-58 -122,-58 -45,0 -86,31 -121,58 -18,14 -55,43 -78,43 -24,0 -61,-29 -79,-43 -35,-27 -75,-58 -121,-58 -46,0 -86,31 -121,58 -19,14 -55,43 -79,43 -24,0 -60,-29 -79,-43 -25,-19 -53,-41 -84,-52 59,68 124,119 194,161 33,-10 63,-33 90,-53 18,-14 55,-44 79,-44 24,0 60,30 79,44 34,26 75,57 121,57 46,0 86,-31 121,-57 18,-14 55,-44 78,-44 24,0 61,30 79,44 27,20 57,43 90,53zm270 -264c12,-19 23,-40 34,-61 -22,-14 -47,-24 -73,-24 -46,0 -86,31 -121,58 -18,13 -55,43 -79,43 -24,0 -60,-30 -78,-43 -35,-27 -76,-58 -122,-58 -45,0 -86,31 -121,58 -18,13 -55,43 -78,43 -24,0 -61,-30 -79,-43 -35,-27 -75,-58 -121,-58 -46,0 -86,31 -121,58 -19,13 -55,43 -79,43 -24,0 -60,-30 -79,-43 -34,-27 -75,-58 -121,-58 -26,0 -50,10 -73,24 11,21 22,42 34,61 14,-8 28,-15 39,-15 24,0 61,30 79,43 35,27 75,58 121,58 46,0 86,-31 121,-58 18,-13 55,-43 79,-43 24,0 60,30 79,43 34,27 75,58 121,58 46,0 86,-31 121,-58 18,-13 55,-43 78,-43 24,0 61,30 79,43 35,27 75,58 121,58 46,0 87,-31 121,-58 19,-13 55,-43 79,-43 11,0 25,7 39,15zm68 -133c9,-21 18,-44 26,-68 -4,-3 -8,-6 -12,-9 -35,-26 -75,-57 -121,-57 -46,0 -86,31 -121,57 -18,14 -55,44 -79,44 -24,0 -60,-30 -78,-44 -35,-26 -76,-57 -122,-57 -45,0 -86,31 -121,57 -18,14 -55,44 -78,44 -24,0 -61,-30 -79,-44 -35,-26 -75,-57 -121,-57 -46,0 -86,31 -121,57 -19,14 -55,44 -79,44 -24,0 -60,-30 -79,-44 -34,-26 -75,-57 -121,-57 -46,0 -86,31 -121,57 -3,3 -7,6 -12,9 9,24 17,47 26,68 10,-7 20,-14 29,-21 18,-14 54,-43 78,-43 24,0 61,29 79,43 35,27 75,58 121,58 46,0 86,-31 121,-58 18,-14 55,-43 79,-43 24,0 60,29 79,43 34,27 75,58 121,58 46,0 86,-31 121,-58 18,-14 55,-43 78,-43 24,0 61,29 79,43 35,27 75,58 121,58 46,0 87,-31 121,-58 19,-14 55,-43 79,-43 24,0 61,29 79,43 9,7 18,14 28,21z"/>
   <path class="fil0" d="M3250 5903l0 0c-40,-87 -63,-179 -60,-275l2 -64 45 46c34,36 71,68 112,96 26,-37 56,-71 87,-104l36 -37 10 51c10,51 22,103 38,153 11,36 25,74 45,107l23 40 -47 1c-35,0 -70,0 -105,0l1 3c146,354 427,555 813,563 386,-8 667,-209 813,-563l1 -3c-35,0 -70,0 -105,0l-47 -1 23 -40c20,-33 34,-71 45,-107 16,-50 28,-102 38,-153l10 -51 36 37c31,33 61,67 87,104 41,-28 78,-60 112,-96l45 -46 2 64c3,96 -20,188 -60,275l0 0c35,0 70,0 104,0l38 0 -12 36c-162,474 -621,839 -1130,839 -509,0 -968,-365 -1130,-839l-12 -36 38 0c34,0 69,0 104,0z"/>
   <path class="fil6" d="M3146 5930c157,461 605,821 1104,821 499,0 947,-360 1104,-821 -88,0 -177,0 -266,0 -151,364 -441,572 -838,580 -397,-8 -687,-216 -838,-580 -89,0 -178,0 -266,0zm2137 -301c3,87 -17,175 -57,262 -89,0 -178,-1 -267,-1 35,-60 62,-152 85,-269 34,35 68,74 100,121 47,-28 93,-65 139,-113zm-2066 0c-3,87 17,175 57,262 89,0 178,-1 267,-1 -35,-60 -62,-152 -85,-269 -34,35 -68,74 -100,121 -47,-28 -93,-65 -139,-113z"/>
   <g>
    <g>
     <path class="fil7" d="M4402 5153c57,16 94,41 94,69 0,49 -109,88 -243,88 -135,0 -244,-39 -244,-88 0,-28 37,-53 95,-69 0,-103 67,-186 149,-186 82,0 148,83 149,186z"/>
     <path class="fil8" d="M4409 5146c28,8 51,18 67,30 18,13 28,29 28,46 0,29 -29,54 -77,71 -45,16 -106,26 -174,26 -68,0 -130,-10 -175,-26 -47,-17 -77,-42 -77,-71 0,-17 10,-33 29,-46 16,-12 39,-22 66,-30 2,-51 19,-97 46,-131 28,-35 68,-57 111,-57 43,0 82,22 110,57 27,34 44,80 46,131zm59 46c-16,-12 -39,-22 -68,-30l-6 -2 0 -7c0,-49 -16,-93 -42,-125 -25,-32 -61,-51 -99,-51 -39,0 -74,19 -100,51 -25,32 -41,76 -42,125l0 7 -6 2c-28,8 -51,18 -67,30 -14,10 -21,20 -21,30 0,20 25,39 65,53 44,16 104,26 171,26 66,0 126,-10 170,-26 41,-14 66,-33 66,-53 0,-10 -8,-20 -21,-30z"/>
    </g>
    <g>
     <polygon class="fil7" points="3744,4732 3642,4732 3642,4792 3744,4792 "/>
     <polygon class="fil7" points="3846,4732 3744,4732 3744,4792 3846,4792 "/>
     <polygon class="fil7" points="3948,4732 3846,4732 3846,4792 3948,4792 "/>
     <polygon class="fil7" points="4049,4732 3947,4732 3947,4792 4049,4792 "/>
     <polygon class="fil7" points="4151,4732 4049,4732 4049,4792 4151,4792 "/>
     <polygon class="fil7" points="4253,4732 4151,4732 4151,4792 4253,4792 "/>
     <polygon class="fil7" points="4354,4732 4253,4732 4253,4792 4354,4792 "/>
     <polygon class="fil7" points="4456,4732 4354,4732 4354,4792 4456,4792 "/>
     <polygon class="fil7" points="4558,4732 4456,4732 4456,4792 4558,4792 "/>
     <polygon class="fil7" points="4660,4732 4558,4732 4558,4792 4660,4792 "/>
     <polygon class="fil7" points="4761,4732 4660,4732 4660,4792 4761,4792 "/>
     <polygon class="fil7" points="4863,4732 4761,4732 4761,4792 4863,4792 "/>
     <polygon class="fil7" points="3753,5505 3642,5505 3642,5565 3753,5565 "/>
     <polygon class="fil7" points="3864,5505 3753,5505 3753,5565 3864,5565 "/>
     <polygon class="fil7" points="3975,5505 3864,5505 3864,5565 3975,5565 "/>
     <polygon class="fil7" points="4086,5505 3975,5505 3975,5565 4086,5565 "/>
     <polygon class="fil7" points="4197,5505 4086,5505 4086,5565 4197,5565 "/>
     <polygon class="fil7" points="4308,5505 4197,5505 4197,5565 4308,5565 "/>
     <polygon class="fil7" points="4419,5505 4308,5505 4308,5565 4419,5565 "/>
     <polygon class="fil7" points="4530,5505 4419,5505 4419,5565 4530,5565 "/>
     <polygon class="fil7" points="4641,5505 4530,5505 4530,5565 4641,5565 "/>
     <polygon class="fil7" points="4752,5505 4641,5505 4641,5565 4752,5565 "/>
     <polygon class="fil7" points="4863,5505 4752,5505 4752,5565 4863,5565 "/>
     <polygon class="fil7" points="3642,4881 3642,4792 3573,4792 3573,4881 "/>
     <polygon class="fil7" points="3642,4970 3642,4881 3573,4881 3573,4970 "/>
     <polygon class="fil7" points="3642,5059 3642,4970 3573,4970 3573,5059 "/>
     <polygon class="fil7" points="3642,5148 3642,5059 3573,5059 3573,5148 "/>
     <polygon class="fil7" points="3642,5237 3642,5148 3573,5148 3573,5237 "/>
     <polygon class="fil7" points="3642,5327 3642,5237 3573,5237 3573,5327 "/>
     <polygon class="fil7" points="3642,5416 3642,5327 3573,5327 3573,5416 "/>
     <polygon class="fil7" points="3642,5505 3642,5416 3573,5416 3573,5505 "/>
     <polygon class="fil7" points="3573,4732 3642,4732 3642,4792 3573,4792 "/>
     <polygon class="fil7" points="3573,5505 3642,5505 3642,5565 3573,5565 "/>
     <polygon class="fil7" points="4863,4881 4863,4792 4933,4792 4933,4881 "/>
     <polygon class="fil7" points="4863,4970 4863,4881 4933,4881 4933,4970 "/>
     <polygon class="fil7" points="4863,5059 4863,4970 4933,4970 4933,5059 "/>
     <polygon class="fil7" points="4863,5148 4863,5059 4933,5059 4933,5148 "/>
     <polygon class="fil7" points="4863,5237 4863,5148 4933,5148 4933,5237 "/>
     <polygon class="fil7" points="4863,5327 4863,5237 4933,5237 4933,5327 "/>
     <polygon class="fil7" points="4863,5416 4863,5327 4933,5327 4933,5416 "/>
     <polygon class="fil7" points="4863,5505 4863,5416 4933,5416 4933,5505 "/>
     <polygon class="fil7" points="4933,4732 4863,4732 4863,4792 4933,4792 "/>
     <polygon class="fil7" points="4933,5505 4863,5505 4863,5565 4933,5565 "/>
     <g>
      <path class="fil8" d="M3738 4738l-90 0 0 48 90 0 0 -48zm-96 -12l102 0 6 0 0 6 0 60 0 5 -6 0 -102 0 -6 0 0 -5 0 -60 0 -6 6 0z"/>
      <path class="fil8" d="M3840 4738l-90 0 0 48 90 0 0 -48zm-96 -12l102 0 6 0 0 6 0 60 0 5 -6 0 -102 0 -6 0 0 -5 0 -60 0 -6 6 0z"/>
      <path class="fil8" d="M3941 4738l-89 0 0 48 89 0 0 -48zm-95 -12l102 0 6 0 0 6 0 60 0 5 -6 0 -102 0 -6 0 0 -5 0 -60 0 -6 6 0z"/>
      <path class="fil8" d="M4043 4738l-89 0 0 48 89 0 0 -48zm-96 -12l102 0 6 0 0 6 0 60 0 5 -6 0 -102 0 -6 0 0 -5 0 -60 0 -6 6 0z"/>
      <path class="fil8" d="M4145 4738l-90 0 0 48 90 0 0 -48zm-96 -12l102 0 6 0 0 6 0 60 0 5 -6 0 -102 0 -6 0 0 -5 0 -60 0 -6 6 0z"/>
      <path class="fil8" d="M4247 4738l-90 0 0 48 90 0 0 -48zm-96 -12l102 0 6 0 0 6 0 60 0 5 -6 0 -102 0 -6 0 0 -5 0 -60 0 -6 6 0z"/>
      <path class="fil8" d="M4348 4738l-89 0 0 48 89 0 0 -48zm-95 -12l101 0 7 0 0 6 0 60 0 5 -7 0 -101 0 -7 0 0 -5 0 -60 0 -6 7 0z"/>
      <path class="fil8" d="M4450 4738l-89 0 0 48 89 0 0 -48zm-96 -12l102 0 6 0 0 6 0 60 0 5 -6 0 -102 0 -6 0 0 -5 0 -60 0 -6 6 0z"/>
      <path class="fil8" d="M4552 4738l-90 0 0 48 90 0 0 -48zm-96 -12l102 0 6 0 0 6 0 60 0 5 -6 0 -102 0 -6 0 0 -5 0 -60 0 -6 6 0z"/>
      <path class="fil8" d="M4653 4738l-89 0 0 48 89 0 0 -48zm-95 -12l102 0 6 0 0 6 0 60 0 5 -6 0 -102 0 -6 0 0 -5 0 -60 0 -6 6 0z"/>
      <path class="fil8" d="M4755 4738l-89 0 0 48 89 0 0 -48zm-95 -12l101 0 7 0 0 6 0 60 0 5 -7 0 -101 0 -7 0 0 -5 0 -60 0 -6 7 0z"/>
      <path class="fil8" d="M4857 4738l-90 0 0 48 90 0 0 -48zm-96 -12l102 0 6 0 0 6 0 60 0 5 -6 0 -102 0 -6 0 0 -5 0 -60 0 -6 6 0z"/>
      <path class="fil8" d="M3747 5511l-99 0 0 48 99 0 0 -48zm-105 -12l111 0 6 0 0 6 0 60 0 6 -6 0 -111 0 -6 0 0 -6 0 -60 0 -6 6 0z"/>
      <path class="fil8" d="M3858 5511l-99 0 0 48 99 0 0 -48zm-105 -12l111 0 6 0 0 6 0 60 0 6 -6 0 -111 0 -6 0 0 -6 0 -60 0 -6 6 0z"/>
      <path class="fil8" d="M3969 5511l-99 0 0 48 99 0 0 -48zm-105 -12l111 0 6 0 0 6 0 60 0 6 -6 0 -111 0 -6 0 0 -6 0 -60 0 -6 6 0z"/>
      <path class="fil8" d="M4080 5511l-99 0 0 48 99 0 0 -48zm-105 -12l111 0 6 0 0 6 0 60 0 6 -6 0 -111 0 -6 0 0 -6 0 -60 0 -6 6 0z"/>
      <path class="fil8" d="M4191 5511l-99 0 0 48 99 0 0 -48zm-105 -12l111 0 6 0 0 6 0 60 0 6 -6 0 -111 0 -6 0 0 -6 0 -60 0 -6 6 0z"/>
      <path class="fil8" d="M4302 5511l-99 0 0 48 99 0 0 -48zm-105 -12l111 0 6 0 0 6 0 60 0 6 -6 0 -111 0 -6 0 0 -6 0 -60 0 -6 6 0z"/>
      <path class="fil8" d="M4413 5511l-99 0 0 48 99 0 0 -48zm-105 -12l111 0 6 0 0 6 0 60 0 6 -6 0 -111 0 -6 0 0 -6 0 -60 0 -6 6 0z"/>
      <path class="fil8" d="M4524 5511l-99 0 0 48 99 0 0 -48zm-105 -12l111 0 6 0 0 6 0 60 0 6 -6 0 -111 0 -6 0 0 -6 0 -60 0 -6 6 0z"/>
      <path class="fil8" d="M4635 5511l-99 0 0 48 99 0 0 -48zm-105 -12l111 0 6 0 0 6 0 60 0 6 -6 0 -111 0 -6 0 0 -6 0 -60 0 -6 6 0z"/>
      <path class="fil8" d="M4746 5511l-99 0 0 48 99 0 0 -48zm-105 -12l111 0 6 0 0 6 0 60 0 6 -6 0 -111 0 -6 0 0 -6 0 -60 0 -6 6 0z"/>
      <path class="fil8" d="M4857 5511l-99 0 0 48 99 0 0 -48zm-105 -12l111 0 6 0 0 6 0 60 0 6 -6 0 -111 0 -6 0 0 -6 0 -60 0 -6 6 0z"/>
      <path class="fil8" d="M3636 4875l0 -78 -57 0 0 78 57 0zm12 -83l0 89 0 6 -6 0 -69 0 -7 0 0 -6 0 -89 0 -6 7 0 69 0 6 0 0 6z"/>
      <path class="fil8" d="M3636 4964l0 -77 -57 0 0 77 57 0zm12 -83l0 89 0 6 -6 0 -69 0 -7 0 0 -6 0 -89 0 -6 7 0 69 0 6 0 0 6z"/>
      <path class="fil8" d="M3636 5053l0 -77 -57 0 0 77 57 0zm12 -83l0 89 0 6 -6 0 -69 0 -7 0 0 -6 0 -89 0 -6 7 0 69 0 6 0 0 6z"/>
      <path class="fil8" d="M3636 5143l0 -78 -57 0 0 78 57 0zm12 -84l0 89 0 6 -6 0 -69 0 -7 0 0 -6 0 -89 0 -6 7 0 69 0 6 0 0 6z"/>
      <path class="fil8" d="M3636 5232l0 -78 -57 0 0 78 57 0zm12 -84l0 89 0 6 -6 0 -69 0 -7 0 0 -6 0 -89 0 -5 7 0 69 0 6 0 0 5z"/>
      <path class="fil8" d="M3636 5321l0 -78 -57 0 0 78 57 0zm12 -84l0 90 0 5 -6 0 -69 0 -7 0 0 -5 0 -90 0 -5 7 0 69 0 6 0 0 5z"/>
      <path class="fil8" d="M3636 5410l0 -78 -57 0 0 78 57 0zm12 -83l0 89 0 5 -6 0 -69 0 -7 0 0 -5 0 -89 0 -6 7 0 69 0 6 0 0 6z"/>
      <path class="fil8" d="M3636 5499l0 -78 -57 0 0 78 57 0zm12 -83l0 89 0 6 -6 0 -69 0 -7 0 0 -6 0 -89 0 -6 7 0 69 0 6 0 0 6z"/>
      <path class="fil8" d="M3573 4726l69 0 6 0 0 6 0 60 0 5 -6 0 -69 0 -7 0 0 -5 0 -60 0 -6 7 0zm63 12l-57 0 0 48 57 0 0 -48z"/>
      <path class="fil8" d="M3573 5499l69 0 6 0 0 6 0 60 0 6 -6 0 -69 0 -7 0 0 -6 0 -60 0 -6 7 0zm63 12l-57 0 0 48 57 0 0 -48z"/>
      <path class="fil8" d="M4857 4881l0 -89 0 -6 6 0 70 0 6 0 0 6 0 89 0 6 -6 0 -70 0 -6 0 0 -6zm12 -84l0 78 58 0 0 -78 -58 0z"/>
      <path class="fil8" d="M4857 4970l0 -89 0 -6 6 0 70 0 6 0 0 6 0 89 0 6 -6 0 -70 0 -6 0 0 -6zm12 -83l0 77 58 0 0 -77 -58 0z"/>
      <path class="fil8" d="M4857 5059l0 -89 0 -6 6 0 70 0 6 0 0 6 0 89 0 6 -6 0 -70 0 -6 0 0 -6zm12 -83l0 77 58 0 0 -77 -58 0z"/>
      <path class="fil8" d="M4857 5148l0 -89 0 -6 6 0 70 0 6 0 0 6 0 89 0 6 -6 0 -70 0 -6 0 0 -6zm12 -83l0 78 58 0 0 -78 -58 0z"/>
      <path class="fil8" d="M4857 5237l0 -89 0 -5 6 0 70 0 6 0 0 5 0 89 0 6 -6 0 -70 0 -6 0 0 -6zm12 -83l0 78 58 0 0 -78 -58 0z"/>
      <path class="fil8" d="M4857 5327l0 -90 0 -5 6 0 70 0 6 0 0 5 0 90 0 5 -6 0 -70 0 -6 0 0 -5zm12 -84l0 78 58 0 0 -78 -58 0z"/>
      <path class="fil8" d="M4857 5416l0 -89 0 -6 6 0 70 0 6 0 0 6 0 89 0 5 -6 0 -70 0 -6 0 0 -5zm12 -84l0 78 58 0 0 -78 -58 0z"/>
      <path class="fil8" d="M4857 5505l0 -89 0 -6 6 0 70 0 6 0 0 6 0 89 0 6 -6 0 -70 0 -6 0 0 -6zm12 -84l0 78 58 0 0 -78 -58 0z"/>
      <path class="fil8" d="M4927 4738l-58 0 0 48 58 0 0 -48zm-64 -12l70 0 6 0 0 6 0 60 0 5 -6 0 -70 0 -6 0 0 -5 0 -60 0 -6 6 0z"/>
      <path class="fil8" d="M4927 5511l-58 0 0 48 58 0 0 -48zm-64 -12l70 0 6 0 0 6 0 60 0 6 -6 0 -70 0 -6 0 0 -6 0 -60 0 -6 6 0z"/>
     </g>
    </g>
    <path class="fil8" d="M4364 5505c-56,-2 -96,-20 -143,-29 -146,-26 -261,-69 -329,-127 -46,-39 -73,-84 -84,-131 -10,-46 -3,-95 22,-141 40,-77 130,-149 265,-197l4 9c-133,47 -220,117 -260,192 -24,45 -31,91 -21,136 10,44 37,87 81,125 78,67 210,118 398,133 22,2 76,8 100,28l-33 2z"/>
    <path class="fil7" d="M4054 4862c-28,12 -44,30 -42,59 30,-10 41,-31 42,-59z"/>
    <path class="fil8" d="M4051 4866c-12,6 -21,12 -27,21 -7,8 -10,18 -9,31 12,-5 21,-12 26,-21 6,-9 9,-19 10,-31zm-31 18c7,-10 18,-18 32,-24l4 -2 0 4c0,14 -3,27 -10,37 -7,11 -18,19 -33,24l-3 1 0 -3c-2,-15 2,-27 10,-37z"/>
    <path class="fil7" d="M4088 4927c-28,12 -54,12 -76,-6 28,-18 52,-10 76,6z"/>
    <path class="fil8" d="M4089 4929c-15,7 -29,10 -43,9 -13,-1 -25,-6 -36,-15l-2 -2 3 -2c14,-9 28,-12 41,-10 13,2 25,8 37,16l4 2 -4 2zm-42 4c11,1 23,-1 36,-6 -11,-7 -21,-12 -32,-13 -11,-2 -22,0 -35,7 10,7 20,11 31,12z"/>
    <path class="fil7" d="M4119 4871c-16,24 -39,33 -68,32 16,-23 38,-34 68,-32z"/>
    <path class="fil8" d="M4121 4872c-8,12 -18,21 -30,26 -12,6 -25,8 -40,7l-4 0 2 -4c8,-11 18,-20 29,-26 12,-5 26,-8 41,-7l4 0 -2 4zm-32 22c9,-4 18,-11 25,-21 -12,-1 -24,2 -33,7 -10,4 -18,11 -25,21 12,0 23,-2 33,-7z"/>
    <path class="fil7" d="M3989 4883c-24,18 -37,39 -28,67 28,-15 34,-39 28,-67z"/>
    <path class="fil8" d="M3987 4888c-10,8 -18,16 -22,26 -5,9 -6,20 -2,32 11,-7 18,-15 22,-25 4,-10 4,-21 2,-33zm-27 24c5,-12 15,-22 28,-31l3 -2 1 4c2,14 2,28 -2,39 -4,12 -13,22 -28,30l-2 2 -1 -3c-5,-15 -4,-28 1,-39z"/>
    <path class="fil7" d="M4038 4945c-25,17 -52,21 -77,5 25,-22 50,-18 77,-5z"/>
    <path class="fil8" d="M4040 4947c-14,9 -28,14 -42,15 -13,1 -26,-2 -38,-10l-3 -2 2 -2c13,-11 26,-16 40,-16 13,0 27,5 41,11l3 2 -3 2zm-42 10c12,0 24,-4 35,-11 -12,-6 -23,-9 -34,-9 -11,0 -23,4 -34,13 11,6 22,8 33,7z"/>
    <path class="fil7" d="M3916 4920c-20,23 -27,46 -10,72 23,-21 23,-46 10,-72z"/>
    <path class="fil8" d="M3915 4924c-8,11 -13,21 -15,31 -2,11 0,22 6,33 10,-9 15,-19 16,-30 1,-11 -2,-22 -7,-34zm-20 31c2,-13 9,-25 19,-37l3 -3 1 4c7,13 10,27 9,39l0 0c-1,13 -7,25 -20,36l-2 2 -2 -2c-8,-14 -11,-27 -8,-39z"/>
    <path class="fil7" d="M3982 4974c-22,21 -48,30 -76,18 20,-26 46,-26 76,-18z"/>
    <path class="fil8" d="M3984 4976c-12,11 -25,19 -39,22 -13,3 -26,2 -40,-3l-3 -2 2 -2c10,-14 22,-21 36,-23 13,-3 27,-1 43,4l4 1 -3 3zm-40 17c12,-3 23,-9 33,-18 -13,-3 -25,-5 -36,-3 -12,2 -22,8 -31,19 12,4 23,5 34,2z"/>
    <path class="fil7" d="M3860 4962c-16,26 -19,51 2,75 21,-25 15,-50 -2,-75z"/>
    <path class="fil8" d="M3861 4967c-7,11 -11,23 -11,33 0,11 3,22 12,33 8,-11 11,-22 11,-33 -1,-11 -5,-22 -12,-33zm-16 33c0,-13 5,-26 13,-39l2 -3 3 3c8,13 14,26 15,39 1,13 -3,25 -14,38l-2 3 -2 -3c-11,-12 -16,-25 -15,-38z"/>
    <path class="fil7" d="M3937 5011c-20,23 -45,35 -75,26 17,-29 44,-31 75,-26z"/>
    <path class="fil8" d="M3939 5013c-10,12 -23,21 -36,26 -13,4 -27,5 -42,0l-3 -1 2 -2c9,-15 20,-24 34,-27 13,-4 28,-3 44,0l4 1 -3 3zm-38 21c11,-4 22,-11 32,-21 -14,-2 -27,-3 -38,0 -11,3 -21,10 -29,23 12,3 24,2 35,-2z"/>
    <path class="fil7" d="M3812 5020c-12,29 -11,54 14,75 17,-28 7,-52 -14,-75z"/>
    <path class="fil8" d="M3813 5025c-5,12 -7,24 -5,35 1,11 7,22 18,31 6,-12 8,-24 5,-35 -3,-11 -9,-21 -18,-31zm-10 36c-2,-13 0,-27 6,-42l2 -3 3 2c11,12 19,24 22,37 3,13 1,27 -7,41l-2 3 -2 -2c-14,-11 -20,-23 -22,-36z"/>
    <path class="fil7" d="M3900 5061c-18,26 -42,40 -74,34 14,-31 41,-36 74,-34z"/>
    <path class="fil8" d="M3902 5062c-10,14 -21,25 -34,31 -13,6 -27,7 -42,4l-3 0 1 -3c7,-16 18,-26 31,-31 13,-5 28,-6 45,-4l4 0 -2 3zm-37 27c12,-6 22,-15 30,-26 -14,-1 -27,0 -38,5 -11,4 -21,12 -27,25 13,2 25,0 35,-4z"/>
    <path class="fil7" d="M3768 5093c0,31 10,55 42,67 6,-32 -13,-52 -42,-67z"/>
    <path class="fil8" d="M3771 5097c0,13 2,25 8,36 6,10 15,18 29,24 2,-14 -1,-26 -8,-36 -6,-9 -17,-17 -29,-24zm4 38c-7,-12 -9,-26 -9,-42l0 -4 4 2c14,7 27,16 35,28 7,11 11,25 8,42l-1 2 -3 -1c-17,-6 -28,-15 -34,-27z"/>
    <path class="fil7" d="M3871 5106c-9,30 -28,51 -61,54 3,-34 28,-47 61,-54z"/>
    <path class="fil8" d="M3873 5107c-5,16 -12,30 -23,39 -10,9 -23,15 -40,16l-3 1 1 -3c1,-18 8,-30 19,-39 12,-8 26,-14 43,-17l4 -1 -1 4zm-27 36c10,-8 16,-20 21,-33 -14,3 -27,7 -36,15 -10,7 -16,18 -18,32 14,-1 25,-6 33,-14z"/>
    <path class="fil7" d="M3752 5174c11,30 29,50 64,52 -5,-33 -30,-46 -64,-52z"/>
    <path class="fil8" d="M3756 5177c5,13 12,24 21,32 9,8 21,13 36,15 -3,-15 -10,-25 -20,-32l0 0c-10,-8 -22,-12 -37,-15zm17 36c-11,-10 -18,-23 -23,-38l-2 -4 5 1c17,2 32,7 43,16l0 0c12,8 20,21 23,38l0 3 -3 0c-18,-1 -32,-7 -43,-16z"/>
    <path class="fil7" d="M3859 5158c1,32 -11,57 -43,68 -8,-34 13,-53 43,-68z"/>
    <path class="fil8" d="M3862 5158c0,16 -3,31 -10,43 -7,12 -18,22 -35,28l-2 1 -1 -3c-5,-18 -1,-32 7,-43 9,-12 22,-21 37,-28l3 -2 1 4zm-15 41c6,-11 9,-23 9,-37 -12,7 -23,15 -31,24 -7,10 -10,22 -7,37 14,-6 23,-14 29,-24z"/>
    <path class="fil7" d="M3768 5252c19,28 43,43 79,36 -16,-32 -45,-39 -79,-36z"/>
    <path class="fil8" d="M3772 5254c9,12 19,21 30,27 12,5 25,7 41,5 -7,-14 -17,-22 -29,-27 -12,-4 -26,-6 -42,-5zm28 31c-13,-7 -24,-17 -34,-31l-3 -4 5 0c17,-2 34,-1 47,5 15,5 26,15 34,32l1 2 -3 1c-18,4 -34,2 -47,-5z"/>
    <path class="fil7" d="M3872 5210c8,32 3,59 -25,78 -18,-32 -1,-56 25,-78z"/>
    <path class="fil8" d="M3874 5210c4,16 5,31 1,44 -4,14 -12,26 -27,35l-2 2 -2 -2c-9,-17 -9,-32 -3,-45 5,-13 16,-25 29,-36l3 -2 1 4zm-4 43c4,-11 3,-24 0,-38 -11,9 -20,20 -25,31 -4,11 -4,24 3,38 12,-9 19,-19 22,-31z"/>
    <path class="fil7" d="M3805 5318c25,24 52,35 86,21 -21,-29 -52,-30 -86,-21z"/>
    <path class="fil8" d="M3810 5319c12,10 23,18 36,22 12,3 26,3 42,-3 -10,-12 -22,-19 -35,-21 -13,-3 -28,-1 -43,2zm34 26c-14,-4 -28,-13 -40,-25l-3 -3 4 -1c17,-5 34,-7 49,-4 15,3 28,11 40,26l1 3 -3 1c-17,7 -33,7 -48,3z"/>
    <path class="fil7" d="M3904 5258c14,31 13,59 -13,81 -22,-29 -9,-56 13,-81z"/>
    <path class="fil8" d="M3907 5257c7,16 10,31 8,45 -2,14 -8,28 -22,39l-2 2 -2 -2c-12,-15 -14,-30 -11,-44 4,-14 13,-28 24,-41l3 -3 2 4zm3 44c2,-12 -1,-25 -7,-38 -9,11 -17,23 -20,35 -3,12 -1,25 9,38 11,-11 17,-22 18,-35z"/>
    <path class="fil7" d="M3856 5374c29,20 58,27 90,8 -27,-26 -58,-23 -90,-8z"/>
    <path class="fil8" d="M3861 5374c13,9 26,15 39,16 14,2 28,-1 42,-9 -12,-11 -25,-16 -39,-16 -14,0 -28,3 -42,9zm39 21c-16,-2 -31,-9 -46,-19l-3 -2 4 -2c16,-8 32,-12 48,-12 16,1 31,7 45,20l2 2 -2 2c-17,10 -33,13 -48,11z"/>
    <path class="fil7" d="M3947 5298c19,29 22,58 -1,84 -27,-27 -18,-56 1,-84z"/>
    <path class="fil8" d="M3950 5297c9,15 15,30 15,44 0,15 -5,29 -17,42l-2 2 -2 -1c-14,-14 -19,-29 -17,-44 1,-14 9,-29 18,-43l3 -4 2 4zm10 44c-1,-12 -5,-25 -13,-38 -8,12 -14,25 -15,38 -1,12 2,25 14,37 10,-12 14,-24 14,-37z"/>
    <path class="fil7" d="M3917 5420c33,16 63,19 92,-6 -31,-22 -62,-14 -92,6z"/>
    <path class="fil8" d="M3922 5420c15,6 29,10 43,10 14,0 27,-5 40,-15 -14,-10 -28,-13 -42,-11 -14,1 -27,7 -41,16zm43 15c-16,0 -32,-5 -49,-13l-4 -2 3 -2c16,-10 32,-17 47,-19 16,-2 33,2 49,14l2 1 -2 2c-15,13 -30,18 -46,19z"/>
    <path class="fil7" d="M4000 5329c22,28 29,56 9,85 -31,-23 -25,-54 -9,-85z"/>
    <path class="fil8" d="M4002 5328c11,14 19,28 21,43 2,15 -1,30 -11,45l-2 2 -2 -2c-17,-12 -23,-26 -24,-41 0,-15 5,-31 13,-47l2 -3 3 3zm16 44c-2,-13 -8,-26 -18,-38 -6,14 -11,28 -11,41 1,13 6,25 20,36 8,-13 11,-26 9,-39z"/>
    <path class="fil7" d="M3984 5460c37,10 67,8 92,-21 -36,-18 -65,-4 -92,21z"/>
    <path class="fil8" d="M3989 5459c17,4 32,5 45,3 14,-3 27,-10 38,-23 -16,-7 -31,-7 -45,-3 -13,4 -26,12 -38,23zm46 7c-16,3 -33,1 -51,-4l-4 -1 3 -3c13,-12 27,-22 43,-27 16,-5 33,-4 51,5l3 2 -2 2c-13,15 -27,23 -43,26z"/>
    <path class="fil7" d="M4053 5354c27,25 39,52 23,85 -36,-19 -34,-52 -23,-85z"/>
    <path class="fil8" d="M4054 5352c14,13 24,26 29,41 4,14 4,30 -5,47l-1 2 -2 -1c-19,-10 -28,-24 -31,-39 -3,-15 1,-32 6,-49l1 -4 3 3zm24 42c-4,-12 -13,-24 -24,-36 -5,15 -7,30 -5,43 3,13 10,25 26,34 6,-15 7,-28 3,-41z"/>
    <path class="fil8" d="M4164 5505c40,-2 66,-16 103,-21 167,-24 299,-72 372,-135 46,-39 74,-84 84,-131 11,-46 3,-95 -21,-141 -41,-77 -130,-149 -265,-197l-4 9c133,47 220,117 260,192 23,45 30,91 20,136 -10,44 -36,87 -81,125 -75,66 -202,116 -382,132 -28,3 -102,15 -122,31l36 0z"/>
    <g>
     <path class="fil9" d="M4428 4867c1,-22 35,-32 39,-10 9,9 41,43 13,63 5,6 -33,22 -48,22 -21,16 -38,-18 -23,-28 -15,-15 -2,-48 19,-47z"/>
     <path class="fil8" d="M4427 4865c0,-8 6,-15 13,-19 3,-1 6,-2 9,-3 3,0 7,0 9,1 5,2 9,6 10,12l0 0c2,2 5,5 7,8 13,14 29,39 7,57l0 0c0,2 -1,4 -5,7 -2,2 -6,4 -11,6 -11,5 -25,9 -34,9 -7,5 -13,6 -19,3l0 0c-2,-1 -5,-3 -6,-6 -2,-2 -3,-5 -4,-7 -2,-7 -1,-15 4,-19 -4,-5 -6,-12 -6,-18 0,-5 1,-9 3,-14 2,-4 5,-8 8,-11 4,-3 9,-6 15,-6zm15 -16c-7,3 -12,10 -12,18l0 1 -2 0c-5,0 -9,2 -13,6 -3,2 -6,6 -8,10 -1,4 -2,8 -2,12 -1,6 1,12 6,17l1 1 -1 1c-6,4 -7,11 -5,17 1,2 2,4 4,6 1,2 3,4 5,5l0 0c4,2 10,2 15,-3l2 0c8,0 22,-4 33,-9 4,-2 8,-4 10,-6 2,-2 4,-3 3,-4 0,0 0,0 0,0l-1 -1 2 -1c21,-16 5,-39 -6,-53 -3,-3 -6,-6 -7,-8l-1 0 0 -1c-1,-5 -4,-9 -8,-10 -2,-1 -5,-1 -7,-1 -3,1 -6,2 -8,3z"/>
     <path class="fil10" d="M4429 4945c9,-10 7,-18 18,-23 -3,-11 -4,-15 -9,-23 11,-4 10,-2 26,-12 -8,-8 4,-23 2,-34 35,20 27,43 52,72 -29,-2 -57,23 -89,20z"/>
     <path class="fil8" d="M4427 4944c4,-4 6,-8 8,-11 2,-5 4,-9 10,-12 -2,-5 -3,-8 -4,-11l0 0c-1,-3 -2,-6 -5,-10l-1 -2 2 -1c3,-1 5,-1 7,-2 5,-1 8,-2 18,-8 -4,-5 -2,-12 0,-19 2,-5 3,-10 2,-15l0 -3 3 2c21,12 27,25 33,39 4,10 9,21 19,33l3 3 -4 0c-14,-1 -27,4 -41,9 -15,6 -31,12 -49,11l-3 -1 2 -2zm11 -10c-1,3 -3,6 -6,10 16,0 30,-5 44,-11 13,-5 25,-9 38,-10 -9,-11 -13,-21 -17,-30 -6,-14 -11,-26 -29,-37 0,4 -1,8 -2,13 -2,6 -4,13 0,17l1 1 -2 1c-11,8 -15,9 -20,10 -1,1 -3,1 -5,2 2,3 4,6 5,9l0 0c1,3 2,7 3,12l1 1 -1 1c-6,3 -8,7 -10,11z"/>
     <path class="fil9" d="M4512 4886c9,-20 45,-17 39,4 5,12 21,54 -14,64 3,7 -39,8 -53,3 -26,7 -27,-30 -9,-34 -8,-19 17,-45 37,-37z"/>
     <path class="fil8" d="M4511 4884c4,-8 12,-12 20,-13 3,0 7,0 10,1 3,0 6,2 8,4l0 0c4,3 6,8 4,14l0 0c1,3 2,6 3,10 6,18 11,47 -17,55l0 0 0 0c0,2 -3,4 -7,5 -3,1 -8,1 -13,1 -12,1 -27,0 -35,-3 -9,3 -15,0 -19,-4 -1,-2 -3,-5 -3,-7 -1,-3 -1,-6 -1,-9 1,-7 5,-14 12,-16 -2,-6 -1,-13 1,-18 2,-5 5,-9 9,-12 3,-3 8,-6 12,-7 5,-2 11,-3 16,-1zm20 -10c-7,1 -14,5 -18,13l0 1 -2 0c-5,-2 -10,-2 -15,0 -4,1 -7,3 -11,6 -3,3 -6,7 -7,11 -3,6 -4,12 -1,17l0 2 -2 1c-6,1 -10,7 -10,13 -1,3 -1,5 0,8 1,2 2,4 3,6 3,3 8,5 15,3l2 0c7,3 22,4 34,3 5,0 9,-1 12,-2 3,0 5,-1 5,-2 0,0 0,0 0,0l-1 -2 2 0c26,-7 21,-34 16,-51 -1,-4 -2,-7 -3,-10l-1 0 0 -1c2,-5 0,-9 -3,-12l0 0c-1,-2 -4,-3 -6,-3 -3,-1 -6,-1 -9,-1z"/>
     <path class="fil10" d="M4480 4959c13,-6 14,-14 26,-16 2,-11 2,-14 1,-24 12,0 11,2 30,-2 -5,-10 13,-20 15,-30 24,30 7,49 19,85 -27,-12 -62,1 -91,-13z"/>
     <path class="fil8" d="M4479 4957c5,-2 9,-5 12,-8 4,-3 7,-6 14,-7 0,-5 1,-8 1,-12 0,-3 0,-6 0,-11l-1 -2 2 0c4,0 6,1 8,1 5,0 8,1 19,-2 -1,-6 4,-11 9,-17l0 0c3,-4 7,-8 7,-13l1 -3 3 3c14,18 14,32 14,48 0,11 0,23 4,37l2 4 -4 -2c-12,-5 -27,-5 -42,-5 -16,0 -33,0 -49,-8l-3 -1 3 -2zm14 -5c-2,2 -5,4 -9,7 14,5 29,5 44,5 14,0 28,0 40,5 -4,-14 -4,-25 -4,-35 0,-14 0,-27 -11,-44 -2,4 -5,8 -8,11l0 0c-4,5 -9,11 -7,16l1 2 -2 0c-14,3 -17,3 -22,2 -2,0 -3,0 -6,0 1,4 1,7 1,10 -1,3 -1,7 -2,12l0 2 -2 0c-6,1 -9,3 -13,7z"/>
     <path class="fil9" d="M4572 4924c11,-19 47,-14 39,7 3,13 15,56 -20,62 1,8 -40,5 -54,-2 -26,6 -24,-31 -5,-34 -6,-20 21,-43 40,-33z"/>
     <path class="fil8" d="M4571 4922c5,-8 14,-11 22,-12 3,0 6,1 9,2 3,1 6,2 8,4 4,4 5,9 3,15l0 0 0 0c0,3 1,6 2,10 4,18 6,48 -22,53l0 1c-1,2 -4,3 -8,4 -3,0 -8,0 -13,0 -12,0 -27,-2 -35,-6 -9,2 -15,-1 -18,-6 -2,-2 -3,-5 -3,-7 0,-3 0,-6 0,-9 2,-7 6,-13 14,-15 -2,-6 0,-13 3,-18 3,-4 6,-8 10,-11 4,-3 8,-5 13,-6 5,-2 10,-2 15,1zm22 -8c-7,0 -15,3 -19,10l-1 2 -2 -1c-4,-2 -9,-2 -14,-1 -4,1 -8,3 -12,6 -3,2 -7,6 -9,9 -3,6 -4,12 -3,18l1 2 -2 0c-7,1 -11,6 -12,13 -1,2 -1,5 0,7 0,2 1,5 2,6 3,4 8,6 15,5l1 0c7,3 22,6 34,6 5,0 9,0 12,-1 3,0 5,-1 5,-1 0,-1 0,-1 0,-1l0 -1 1 -1c27,-4 25,-32 22,-49 -1,-4 -2,-7 -3,-10l0 0 0 0 0 -1c2,-6 1,-10 -2,-12 -1,-2 -3,-3 -6,-4 -2,-1 -5,-1 -8,-1z"/>
     <path class="fil10" d="M4533 4993c13,-4 16,-13 28,-13 3,-11 3,-14 3,-24 12,1 10,3 30,1 -4,-10 15,-19 18,-29 21,32 2,49 10,86 -25,-14 -62,-4 -89,-21z"/>
     <path class="fil8" d="M4532 4992c6,-2 9,-5 13,-7 4,-3 8,-6 14,-7 2,-4 2,-8 3,-11 0,-3 1,-6 1,-11l0 -2 2 0c3,1 5,1 7,2l0 0c5,0 8,1 20,-1 -1,-6 4,-11 9,-16 4,-4 8,-8 10,-12l1 -3 2 3c12,19 11,33 9,49 -1,11 -2,23 1,38l1 3 -4 -2c-11,-6 -26,-7 -41,-9 -16,-1 -33,-3 -48,-11l-3 -2 3 -1zm15 -5c-3,2 -6,5 -10,6 13,7 29,9 44,10 14,1 27,2 39,8 -3,-14 -2,-25 0,-35 1,-15 2,-27 -7,-44 -2,3 -6,6 -9,9 -5,5 -10,10 -9,15l1 2 -2 1c-14,1 -17,1 -23,0l0 0c-1,0 -3,-1 -5,-1 0,4 0,7 -1,10 0,3 -1,7 -2,12l-1 2 -1 0c-6,0 -10,2 -14,5z"/>
     <path class="fil9" d="M4635 4963c15,-17 49,-5 37,14 1,13 4,57 -32,58 0,7 -40,-2 -52,-11 -27,1 -18,-35 1,-34 -2,-21 30,-39 46,-27z"/>
     <path class="fil8" d="M4635 4961c6,-6 15,-8 23,-7 4,0 7,1 10,2 2,2 5,4 6,6 3,4 3,10 0,15l0 1c0,2 0,6 0,10 0,18 -3,47 -32,48l0 0 0 0c-1,2 -4,3 -8,3 -4,0 -8,0 -13,-1 -12,-3 -27,-7 -34,-12 -9,0 -14,-4 -16,-9 -1,-2 -2,-5 -2,-8 0,-3 1,-6 2,-8 3,-7 9,-12 16,-13 0,-6 3,-12 7,-17 3,-4 7,-7 12,-9 4,-3 9,-4 14,-4 5,-1 11,0 15,3zm23 -4c-8,-1 -16,1 -21,7l-1 2 -2 -1c-4,-3 -9,-4 -14,-4 -4,0 -8,2 -12,4 -4,2 -8,4 -11,8 -4,5 -7,10 -6,16l0 2 -2 0c-6,0 -12,5 -14,11 -1,2 -2,5 -2,7 0,2 0,5 1,7 2,4 6,7 14,6l1 1c6,4 21,9 32,11 5,1 9,2 13,2 2,0 4,-1 4,-1l0 0c1,0 1,0 1,0l0 -2 1 0c27,0 31,-28 31,-45 0,-4 -1,-8 -1,-10l0 -1 0 -1c3,-5 3,-9 1,-12 -1,-2 -3,-3 -5,-5 -3,-1 -5,-2 -8,-2z"/>
     <path class="fil10" d="M4583 5025c14,-2 19,-10 30,-8 5,-10 7,-14 9,-23 11,3 9,5 28,6 -1,-11 19,-16 24,-26 14,35 -7,49 -7,86 -22,-18 -60,-14 -84,-35z"/>
     <path class="fil8" d="M4583 5023c6,-1 10,-2 14,-4 5,-3 9,-5 15,-4 2,-4 4,-8 5,-11 1,-3 2,-6 3,-10l0 -2 2 0c3,1 5,2 7,3 5,1 7,2 19,3 1,-6 7,-10 13,-15 5,-3 9,-6 12,-10l1 -3 2 3c8,22 4,35 -1,51 -3,10 -6,21 -6,36l0 4 -3 -2c-10,-9 -24,-12 -38,-16 -17,-4 -33,-8 -46,-20l-2 -2 3 -1zm15 -1c-3,1 -6,3 -11,4 12,9 27,13 42,17 13,3 26,6 36,14 1,-14 4,-25 7,-34 4,-14 8,-27 2,-45 -3,3 -7,5 -11,8 -6,4 -12,8 -11,13l0 2 -2 0c-14,0 -17,-1 -22,-3 -2,-1 -3,-1 -5,-2 -1,4 -2,7 -3,10 -1,3 -3,6 -5,12l-1 1 -1 0c-6,-1 -10,1 -15,3z"/>
     <path class="fil9" d="M4677 5008c17,-15 49,2 34,19 -1,13 -5,57 -41,52 -1,8 -39,-7 -50,-17 -27,-3 -12,-38 7,-34 1,-21 36,-35 50,-20z"/>
     <path class="fil8" d="M4677 5006c7,-6 16,-6 24,-4 3,1 6,2 9,4 2,2 4,4 5,7 2,4 2,9 -2,15l0 0c-1,2 -1,6 -2,10 -3,18 -11,46 -40,43l0 0c-1,2 -4,2 -8,2 -4,-1 -8,-2 -13,-3 -11,-4 -25,-11 -31,-17 -9,-1 -13,-5 -15,-11 0,-2 0,-5 0,-8 1,-3 2,-6 3,-8 4,-6 11,-11 18,-10 1,-6 5,-12 10,-16 4,-3 8,-6 13,-8 5,-1 10,-2 14,-2 6,1 11,2 15,6zm23 -1c-7,-2 -15,-1 -22,4l-1 2 -1 -2c-4,-3 -9,-5 -14,-5 -4,-1 -8,0 -13,2 -4,1 -8,3 -11,6 -5,4 -9,10 -9,16l0 2 -2 -1c-7,-1 -13,3 -16,9 -2,2 -3,4 -3,7 -1,2 -1,4 0,6 1,5 5,8 12,9l1 0c6,6 19,13 30,17 5,1 9,2 12,3 3,0 5,0 5,-1 0,0 0,0 0,0l1 -1 1 0c27,3 35,-23 38,-41 0,-4 1,-7 1,-10l0 0 1 -1c3,-4 4,-9 2,-12 -1,-2 -2,-4 -4,-5 -3,-2 -5,-3 -8,-4z"/>
     <path class="fil10" d="M4615 5062c15,0 20,-7 31,-4 7,-9 9,-13 12,-22 11,5 9,7 28,10 0,-11 21,-13 28,-22 8,37 -16,47 -22,85 -18,-21 -56,-23 -77,-47z"/>
     <path class="fil8" d="M4615 5060c6,0 11,-1 15,-2 5,-2 9,-3 16,-2 2,-4 4,-7 6,-10 2,-3 3,-6 5,-10l0 -2 2 1c3,1 5,2 7,3 4,2 6,4 18,6 2,-6 8,-9 15,-12 5,-3 10,-5 13,-9l2 -3 1 4c5,22 -1,35 -8,49 -5,10 -11,21 -13,36l0 4 -3 -3c-9,-10 -22,-16 -35,-21 -16,-7 -31,-13 -42,-26l-2 -3 3 0zm16 1c-4,1 -7,2 -12,2 10,11 24,17 38,23 13,5 25,10 34,19 3,-14 8,-24 12,-33 7,-13 13,-25 9,-44 -3,3 -7,5 -11,7 -7,3 -13,6 -14,11l0 2 -2 0c-14,-3 -17,-4 -21,-7 -1,-1 -3,-1 -5,-2 -1,3 -2,6 -4,9 -2,3 -4,6 -7,11l-1 1 -1 0c-6,-2 -10,-1 -15,1z"/>
     <path class="fil9" d="M4713 5064c20,-11 48,10 29,25 -4,12 -17,55 -51,44 -2,7 -37,-14 -45,-27 -26,-7 -4,-38 14,-32 6,-20 42,-27 53,-10z"/>
     <path class="fil8" d="M4714 5062c8,-4 17,-3 24,0 3,2 6,4 8,6l0 0c2,2 3,5 4,7 1,5 -1,10 -6,15l0 0c-1,2 -2,6 -3,9 -7,18 -21,44 -49,36l0 0 0 0c-2,1 -5,1 -9,0 -3,-1 -7,-3 -11,-6 -11,-6 -22,-15 -27,-21 -8,-3 -12,-8 -12,-14 -1,-2 0,-5 1,-8 1,-3 3,-5 5,-7 5,-5 13,-9 20,-7 2,-6 7,-11 13,-14 4,-2 9,-4 14,-5 5,0 10,0 14,1l0 0c6,1 10,4 14,8zm22 3c-6,-3 -15,-4 -22,1l-2 0 -1 -1c-2,-4 -6,-7 -11,-8l0 0c-5,-1 -9,-1 -14,0 -4,0 -9,2 -12,4 -6,3 -11,8 -12,14l-1 1 -2 0c-6,-2 -13,0 -17,5 -2,2 -4,4 -5,6 0,3 -1,5 -1,7 0,4 4,8 11,11l1 0c4,7 15,16 26,22 4,2 8,4 11,5 2,1 4,1 5,0 0,0 0,0 0,0l0 -1 2 0c26,9 39,-16 45,-33 2,-3 3,-7 4,-9l0 -1 0 -1c5,-3 6,-7 5,-11 0,-2 -1,-4 -3,-6l0 0c-2,-2 -4,-4 -7,-5z"/>
     <path class="fil10" d="M4641 5106c14,2 21,-4 32,2 8,-9 11,-11 16,-20 9,7 7,8 25,15 2,-11 23,-9 32,-17 0,38 -25,44 -39,79 -14,-24 -51,-32 -66,-59z"/>
     <path class="fil8" d="M4642 5104c6,1 10,0 14,0 6,-1 10,-1 16,1 4,-3 6,-6 8,-8 3,-3 5,-5 7,-9l1 -2 2 1c2,2 4,3 6,5l0 0c3,2 5,4 17,9 2,-6 10,-8 17,-10 5,-1 11,-3 14,-6l3 -2 0 3c0,23 -8,34 -19,47 -6,9 -14,19 -19,33l-2 3 -1 -3c-7,-11 -19,-19 -31,-27 -13,-9 -27,-18 -35,-32l-2 -3 4 0zm15 3c-4,1 -8,1 -12,1 7,12 20,20 32,29 12,7 23,14 30,24 5,-12 12,-21 19,-30 9,-11 17,-22 18,-41 -4,2 -9,3 -13,4 -7,2 -14,4 -16,9l0 2 -2 -1c-13,-5 -16,-7 -20,-10l0 0c-1,-1 -2,-2 -4,-3 -2,3 -4,6 -6,8 -2,3 -5,6 -9,10l-1 1 -1 -1c-6,-3 -10,-2 -15,-2z"/>
     <path class="fil9" d="M4726 5137c22,-5 41,23 19,32 -7,10 -34,47 -63,27 -5,6 -30,-24 -34,-38 -22,-15 9,-38 24,-27 12,-17 49,-13 54,6z"/>
     <path class="fil8" d="M4727 5135c9,-1 17,2 23,7 2,3 4,5 5,8 2,3 2,6 2,8 -1,5 -4,9 -10,12l0 0c-2,2 -4,5 -7,9 -12,14 -34,35 -58,19l0 0 0 0c-2,1 -5,0 -8,-2 -3,-2 -6,-5 -9,-9 -8,-8 -16,-20 -19,-28 -7,-5 -8,-11 -7,-16 1,-3 2,-5 4,-8l0 0c2,-2 5,-4 7,-5l0 0c7,-4 15,-5 21,-1 4,-5 11,-8 17,-10 5,-1 10,-1 15,0 5,1 10,2 14,5 5,2 8,6 10,11zm20 10c-5,-5 -13,-8 -21,-6l-2 0 0 -2c-1,-4 -5,-8 -9,-11 -3,-2 -8,-3 -12,-4l0 0c-5,0 -10,0 -14,1 -6,1 -12,4 -16,9l-1 2 -2 -1c-5,-4 -12,-3 -18,0l0 0c-2,1 -4,3 -6,5l0 0c-2,1 -3,3 -3,6 -2,4 0,9 6,13l1 1c2,7 10,19 17,27 4,4 7,6 9,8 2,2 4,3 5,2l0 0c0,0 0,0 0,0l1 -1 1 1c22,15 43,-5 54,-19 3,-3 5,-6 7,-8l0 0 1 -1c5,-2 8,-5 8,-9 1,-2 0,-5 -1,-7 -1,-2 -3,-4 -5,-6z"/>
     <path class="fil10" d="M4644 5156c12,6 21,3 29,11 10,-6 14,-7 21,-14 7,9 4,9 19,21 6,-9 25,-2 36,-6 -12,35 -38,34 -63,64 -5,-27 -37,-46 -42,-76z"/>
     <path class="fil8" d="M4644 5155c6,2 10,3 14,4 6,1 10,2 15,6 5,-3 8,-4 11,-6 3,-2 5,-4 9,-7l2 -1 1 1c2,3 3,5 4,6 2,4 4,6 13,14 4,-5 12,-5 20,-4 5,0 11,0 15,-2l4 -2 -1 4c-8,22 -20,30 -34,39 -9,7 -19,14 -29,26l-3 3 0 -4c-3,-12 -12,-23 -20,-34 -10,-13 -21,-25 -23,-42l-1 -3 3 2zm14 7c-4,-1 -8,-1 -12,-3 3,14 13,26 22,37 8,10 16,20 19,32 10,-11 19,-17 28,-23 13,-9 24,-17 31,-35 -4,1 -9,1 -13,1 -8,0 -15,-1 -18,4l-1 2 -2 -2c-11,-8 -13,-11 -15,-15 -1,-1 -2,-3 -3,-4 -3,2 -6,4 -8,6 -4,2 -7,4 -12,6l-2 1 -1 -1c-4,-4 -8,-5 -13,-6z"/>
     <path class="fil9" d="M4721 5207c23,0 35,32 12,35 -11,9 -46,40 -69,14 -6,5 -23,-30 -24,-44 -17,-19 18,-35 30,-21 16,-15 51,-4 51,16z"/>
     <path class="fil8" d="M4723 5206c9,0 16,5 21,12 1,2 3,5 3,8 1,3 0,6 -1,9l0 0c-1,4 -6,8 -13,9l0 0c-2,2 -4,4 -8,7 -15,11 -42,27 -61,7l0 0c-2,0 -5,-1 -8,-4 -2,-3 -4,-6 -7,-10 -5,-10 -10,-24 -11,-32 -5,-6 -5,-12 -3,-17 2,-3 4,-5 6,-6 3,-2 5,-3 8,-4 8,-2 16,-2 21,3 5,-4 12,-6 19,-6 5,0 10,1 15,3 4,2 9,4 12,8 4,3 6,8 7,13zm17 13c-3,-5 -10,-10 -19,-10l-2 0 0 -2c0,-4 -2,-9 -6,-12 -3,-3 -6,-5 -11,-7 -4,-1 -9,-2 -13,-2 -7,0 -13,2 -18,6l-1 1 -2 -1c-4,-5 -11,-6 -18,-4 -2,1 -5,2 -7,3 -2,2 -3,3 -4,5 -3,4 -2,9 3,15l0 1c0,7 5,20 11,30 2,4 4,8 6,10 2,2 3,3 4,3 0,0 0,0 0,0l2 -1 1 1c17,19 42,4 57,-7 3,-2 6,-5 8,-6l0 -1 1 0c6,-1 10,-4 11,-7l0 0c1,-3 1,-5 0,-7 0,-3 -1,-5 -3,-8z"/>
     <path class="fil10" d="M4637 5209c10,9 19,7 25,16 12,-3 16,-4 25,-8 4,10 1,9 13,24 8,-8 25,3 37,1 -21,32 -46,25 -77,49 1,-27 -26,-52 -23,-82z"/>
     <path class="fil8" d="M4638 5208c4,3 8,5 12,7 5,2 10,3 13,8 5,-1 9,-2 12,-3 3,-1 6,-2 11,-5l2 -1 0 2c2,3 2,5 3,7 1,4 2,6 9,15 6,-3 13,-1 21,1 5,1 11,2 15,1l4 0 -2 3c-12,19 -26,25 -42,31 -11,4 -23,9 -35,19l-3 2 0 -4c1,-12 -5,-25 -11,-37 -7,-14 -14,-29 -12,-45l0 -3 3 2zm11 10c-4,-2 -7,-3 -11,-6 0,15 6,28 12,41 6,11 11,23 12,35 11,-9 22,-13 32,-17 15,-6 28,-11 39,-27 -4,0 -9,-1 -13,-2 -8,-2 -15,-4 -19,0l-1 1 -1 -1c-9,-11 -10,-14 -12,-18 0,-2 0,-3 -1,-5 -4,2 -7,3 -10,4 -3,1 -7,2 -13,4l-2 0 0 -1c-3,-5 -8,-6 -12,-8z"/>
     <path class="fil9" d="M4687 5265c23,4 28,37 4,37 -12,6 -53,30 -70,0 -7,4 -17,-33 -14,-48 -13,-21 25,-31 34,-15 19,-11 51,7 46,26z"/>
     <path class="fil8" d="M4689 5264c9,2 15,9 18,16 1,2 2,6 2,8 -1,3 -1,6 -3,9 -3,4 -7,6 -15,6l0 0 0 0c-2,2 -5,4 -9,6 -18,8 -47,18 -62,-5l0 0 0 0c-2,0 -4,-2 -6,-5 -2,-3 -3,-7 -5,-12 -3,-10 -5,-24 -4,-32 -4,-8 -3,-14 1,-18l0 0c2,-2 4,-4 7,-5 3,-1 6,-2 9,-2 8,-1 15,1 19,7 6,-3 13,-3 20,-2 5,1 10,3 14,5 4,3 8,6 10,10 3,4 5,9 4,14zm15 17c-3,-7 -9,-13 -17,-14l-2 0 0 -2c1,-5 0,-9 -3,-13 -2,-4 -5,-7 -9,-9 -4,-2 -8,-4 -13,-5 -6,-1 -13,-1 -18,3l-2 1 -1 -2c-3,-5 -10,-8 -17,-7 -2,0 -5,1 -7,2 -3,1 -5,2 -6,4l0 0c-3,4 -4,8 0,15l0 1c-2,7 0,21 4,32 1,4 2,8 4,10 1,2 2,4 3,4l0 0c0,0 0,0 0,0l2 -1 1 1c12,23 40,13 57,5 4,-2 7,-4 9,-5l0 0 1 -1 1 0c6,0 10,-2 12,-5 1,-2 2,-4 2,-7 0,-2 0,-5 -1,-7z"/>
     <path class="fil10" d="M4604 5251c9,10 18,10 22,21 12,-1 16,-1 26,-4 2,11 -1,10 7,26 10,-6 24,8 36,8 -27,28 -50,16 -86,34 7,-26 -14,-56 -5,-85z"/>
     <path class="fil8" d="M4605 5250c4,4 8,7 11,9 5,3 9,6 11,11 5,0 9,-1 12,-1 4,-1 7,-1 12,-3l2 0 0 2c1,3 1,5 1,7 1,4 1,7 6,17 6,-3 13,0 20,4 5,2 10,4 15,4l4 0 -3 3c-16,17 -31,20 -48,23 -11,2 -24,4 -38,12l-4 1 1 -3c4,-13 1,-26 -3,-39 -3,-15 -7,-31 -2,-46l1 -4 2 3zm9 12c-3,-2 -6,-4 -9,-7 -3,13 0,28 3,41 3,13 6,25 4,37 13,-6 24,-8 35,-10 16,-3 29,-6 44,-20 -4,0 -8,-2 -13,-4 -6,-3 -13,-6 -18,-3l-1 1 -1 -2c-6,-12 -7,-15 -7,-20 0,-1 -1,-3 -1,-5 -4,1 -7,2 -10,2 -4,1 -8,1 -14,2l-2 0 0 -2c-2,-5 -6,-7 -10,-10z"/>
     <path class="fil9" d="M4651 5328c22,8 21,41 -3,37 -13,5 -57,22 -69,-10 -8,3 -11,-35 -5,-49 -10,-23 30,-27 35,-10 21,-8 49,14 42,32z"/>
     <path class="fil8" d="M4653 5327c9,4 14,11 15,18 1,4 1,7 0,10 -1,2 -2,5 -4,7 -3,4 -9,6 -16,5l0 0c-2,1 -6,2 -10,3 -19,6 -50,12 -60,-13l0 0 0 0c-2,0 -4,-3 -5,-6 -2,-3 -2,-7 -3,-12 -1,-11 -1,-25 2,-33 -3,-8 -1,-14 3,-17 3,-2 5,-3 8,-4 3,-1 6,-1 9,-1 8,0 15,4 18,10 7,-2 14,-2 20,1 5,1 9,4 13,7 4,3 7,7 9,11 2,5 3,10 1,14zm11 19c-1,-7 -6,-13 -14,-16l-2 -1 1 -1c2,-5 1,-9 -1,-14 -1,-3 -4,-7 -7,-10 -4,-2 -8,-5 -12,-6 -6,-2 -13,-3 -19,0l-2 0 0 -1c-2,-6 -9,-9 -16,-10 -3,0 -5,0 -8,1 -2,1 -4,2 -6,3 -4,3 -5,8 -3,14l0 2c-2,7 -3,20 -1,32 0,4 1,8 2,11 1,2 2,4 3,4 0,0 0,0 0,0l1 -1 1 2c9,24 38,18 56,12 4,-1 8,-2 10,-3l1 -1 1 0c5,1 10,0 12,-3 2,-2 3,-4 3,-6 1,-3 1,-5 0,-8z"/>
     <path class="fil10" d="M4571 5302c7,12 16,13 18,24 12,1 16,1 26,0 0,11 -2,10 3,27 11,-5 22,11 34,13 -31,23 -52,9 -91,21 12,-25 -4,-57 10,-85z"/>
     <path class="fil8" d="M4573 5301c3,5 6,8 9,11 4,3 7,7 9,12 5,1 8,1 12,1 3,0 7,0 12,-1l2 0 0 2c0,3 0,5 0,7 -1,4 -1,7 3,18 6,-2 12,2 19,6 4,4 9,7 13,7l4 1 -3 2c-19,14 -34,15 -51,16l0 0c-12,0 -25,1 -40,6l-4 1 2 -4c5,-11 4,-25 4,-38 -1,-16 -2,-32 5,-46l2 -3 2 2zm6 13c-2,-2 -5,-4 -8,-8 -5,13 -4,28 -4,41 1,13 2,26 -2,37 14,-4 26,-4 37,-5 15,0 29,-1 46,-12 -4,-2 -8,-4 -12,-7 -6,-4 -12,-8 -17,-6l-2 1 0 -2c-4,-12 -4,-15 -4,-20 0,-2 0,-3 0,-5 -4,0 -7,1 -10,1 -4,0 -8,-1 -14,-1l-2 0 0 -2c-1,-5 -4,-8 -8,-12z"/>
     <path class="fil9" d="M4601 5383c19,13 6,45 -14,34 -14,1 -62,4 -63,-29 -8,0 2,-37 11,-49 -1,-25 38,-16 37,1 23,-2 43,27 29,43z"/>
     <path class="fil8" d="M4604 5383c7,5 9,14 8,21 -1,3 -2,6 -3,9 -2,2 -4,4 -7,6 -4,2 -10,3 -16,0l0 0c-3,0 -7,0 -11,0 -20,0 -51,-3 -53,-30l0 0 0 0c-2,-1 -3,-4 -3,-7 0,-4 1,-8 2,-12 2,-11 7,-25 12,-31 0,-8 4,-13 10,-16 2,-1 5,-1 9,-1 3,0 6,1 9,2 7,2 12,8 13,14 7,0 14,3 19,7 4,3 7,6 10,11 2,4 4,8 4,12 1,5 0,10 -3,15zm4 21c1,-7 -1,-15 -8,-20l-1 -1 1 -1c3,-4 4,-8 4,-13 -1,-4 -2,-8 -4,-12 -3,-4 -6,-7 -9,-10 -6,-3 -12,-6 -18,-5l-2 0 0 -2c0,-6 -5,-11 -12,-13 -2,-1 -5,-2 -8,-2 -2,0 -5,1 -7,2 -4,1 -7,5 -7,12l0 1c-5,6 -10,19 -13,30 -1,5 -1,9 -1,12 0,2 0,4 1,4l0 0c0,0 0,0 0,0l2 0 0 2c0,25 30,28 49,28 4,0 8,-1 11,-1l0 0 0 0 1 1c6,2 10,2 14,0 2,-1 3,-3 5,-5 1,-2 2,-5 2,-7z"/>
     <path class="fil10" d="M4534 5335c3,13 11,17 9,28 11,4 15,6 25,7 -3,11 -5,9 -6,27 12,-1 17,17 28,22 -38,13 -53,-7 -93,-6 19,-20 15,-56 37,-78z"/>
     <path class="fil8" d="M4536 5335c1,5 3,9 5,12 3,5 5,9 4,15 5,2 8,3 12,4 3,1 6,2 11,3l2 0 0 2c-1,3 -2,5 -3,6 -1,4 -2,7 -3,18 7,1 11,6 16,12 3,4 7,9 11,10l3 2 -4 1c-22,8 -37,5 -54,0 -11,-3 -23,-6 -39,-5l-4 0 2 -3c9,-10 13,-23 17,-36 4,-15 9,-30 21,-42l2 -2 1 3zm2 14c-2,-3 -4,-6 -5,-10 -10,11 -14,25 -18,38 -3,12 -7,25 -15,34 15,0 27,3 37,6 15,4 29,8 49,1 -4,-2 -6,-6 -9,-9 -5,-6 -9,-11 -15,-10l-2 0 0 -2c1,-14 2,-16 4,-21 0,-1 1,-3 2,-4 -4,-1 -7,-2 -11,-3 -3,-1 -7,-2 -13,-5l-1 0 0 -1c1,-6 -1,-10 -3,-14z"/>
     <path class="fil9" d="M4543 5421c18,15 3,47 -18,35 -14,0 -65,0 -63,-34 -9,-1 4,-39 15,-50 0,-27 40,-16 38,3 24,-1 43,30 28,46z"/>
     <path class="fil8" d="M4545 5421c7,6 9,15 7,22 0,4 -2,7 -4,9 -1,3 -4,5 -6,6 -5,3 -11,3 -17,-1l-1 0c-2,0 -7,0 -11,0 -21,-1 -53,-6 -53,-34l0 0 0 0c-2,-1 -3,-4 -3,-8 0,-3 1,-8 3,-13 3,-11 9,-25 15,-31 0,-9 5,-14 10,-16l0 0c3,-1 7,-1 10,-1 3,1 6,1 9,3 7,3 13,9 13,16 7,0 14,3 19,8 4,3 8,7 10,11 2,5 4,9 4,14 0,5 -1,10 -5,15zm4 22c1,-7 -1,-15 -8,-21l-1 -1 1 -1c4,-4 5,-9 5,-14 0,-4 -1,-8 -3,-12 -2,-4 -5,-8 -9,-11 -5,-4 -12,-7 -19,-7l-2 0 1 -2c0,-6 -5,-11 -12,-14 -2,-1 -5,-2 -8,-2 -2,-1 -5,0 -7,1l0 0c-5,1 -8,5 -9,13l0 1c-6,6 -12,19 -15,30 -1,5 -2,9 -2,12 0,3 0,5 1,5l0 0c0,0 0,0 0,0l2 0 0 2c-2,26 29,31 49,32 5,0 9,0 11,0l1 0 1 0c5,3 10,3 14,1 2,-1 4,-3 5,-5 2,-2 3,-4 4,-7z"/>
     <path class="fil10" d="M4476 5367c2,14 10,18 7,30 12,5 15,6 26,9 -4,10 -6,8 -8,27 12,-1 17,19 27,25 -40,11 -54,-10 -97,-12 22,-20 20,-57 45,-79z"/>
     <path class="fil8" d="M4477 5367c1,6 3,10 5,13l0 0c2,5 4,9 3,16 5,2 9,3 12,5 4,1 7,2 12,3l2 1 0 1c-2,3 -3,5 -4,7 -2,4 -3,7 -4,19 7,0 11,6 16,13 3,4 6,9 10,11l4 2 -4 1c-24,7 -39,3 -57,-3l0 0c-11,-3 -24,-7 -41,-8l-4 0 3 -3c10,-9 15,-23 20,-36 5,-16 11,-31 24,-43l3 -2 0 3zm2 15l0 0c-2,-3 -4,-7 -5,-11 -11,11 -16,25 -21,39 -4,13 -9,25 -18,35 16,1 28,5 39,8l0 0c15,5 29,9 50,4 -3,-3 -6,-7 -8,-10 -5,-7 -9,-13 -15,-12l-2 0 0 -2c1,-14 3,-17 5,-21 1,-2 2,-3 2,-5 -4,-1 -7,-2 -10,-3 -4,-2 -8,-3 -13,-6l-2 -1 1 -1c1,-6 -1,-10 -3,-14z"/>
    </g>
    <polygon class="fil11" points="3583,4732 3640,4781 3632,4791 3574,4743 "/>
    <polygon class="fil11" points="4931,4743 4874,4791 4865,4781 4922,4732 "/>
    <polygon class="fil11" points="4922,5564 4865,5516 4874,5505 4931,5554 "/>
    <polygon class="fil11" points="3574,5554 3632,5505 3640,5516 3583,5564 "/>
   </g>
   <path class="fil12" d="M3275 6013l12 19c-6,5 -10,10 -11,15 -2,5 -1,11 3,18 3,6 7,11 12,13 4,2 8,2 12,0 3,-2 4,-3 5,-6 1,-2 1,-5 1,-9 0,-3 -2,-10 -4,-19 -3,-13 -3,-22 -2,-29 3,-9 8,-16 16,-20 6,-3 11,-4 18,-3 6,0 11,3 17,7 5,5 9,11 13,19 7,13 9,24 7,33 -3,10 -9,17 -18,22l-11 -20c4,-4 7,-8 8,-12 1,-4 0,-9 -3,-15 -3,-6 -7,-10 -11,-12 -3,-1 -5,-1 -8,0 -2,1 -4,3 -5,6 -1,4 0,12 3,23 3,11 4,20 4,26 0,6 -2,12 -5,17 -3,5 -8,9 -14,12 -6,3 -12,5 -19,4 -7,-1 -13,-3 -19,-8 -6,-5 -11,-12 -15,-21 -7,-13 -9,-24 -6,-34 2,-10 9,-19 20,-26zm75 206l-13 -22 17 -22 -25 -39 -28 6 -13 -21 122 -25 13 21 -73 102zm16 -61l28 -37 -45 10 17 27zm2 81l76 -59 -21 -27 15 -12 57 72 -16 12 -21 -27 -76 60 -14 -19zm71 85l36 -33 20 -77 19 20 -15 51 52 -12 18 20 -78 15 -35 33 -17 -17zm122 115l-19 -17 10 -26 -35 -31 -25 13 -18 -16 110 -57 19 16 -42 118zm-2 -63l16 -43 -40 22 24 21zm43 95l63 -98 20 13 -28 43 67 -17 27 17 -61 14 0 85 -26 -17 3 -63 -26 6 -19 30 -20 -13zm191 111l-23 -12 4 -28 -42 -21 -20 19 -22 -12 93 -82 22 12 -12 124zm-17 -60l6 -46 -34 31 28 15zm28 64l43 -107 46 18c12,5 20,9 24,13 5,4 7,9 9,15 1,7 0,13 -2,19 -4,8 -9,14 -16,17 -6,4 -15,4 -25,2 4,4 6,9 8,14 2,4 4,11 6,22l4 26 -26 -10 -6 -30c-2,-11 -4,-17 -5,-20 -1,-3 -3,-6 -5,-7 -2,-2 -5,-4 -10,-6l-5 -2 -18 45 -22 -9zm47 -53l16 7c11,4 17,6 20,6 3,0 6,-1 8,-2 2,-2 4,-4 6,-7 1,-4 1,-7 0,-10 -1,-3 -3,-6 -6,-8 -2,-1 -7,-3 -16,-7l-17 -6 -11 27zm86 102l14 -47 -22 -76 26 7 14 52 38 -37 26 8 -60 53 -13 46 -23 -6zm163 36l-25 -5 -5 -27 -46 -9 -14 25 -24 -5 64 -106 25 4 25 123zm-34 -53l-8 -45 -23 39 31 6zm86 60l2 -116 24 1 -1 51 48 -50 32 0 -45 45 44 71 -30 0 -31 -55 -19 19 -1 35 -23 -1zm116 4l-9 -116 86 -6 2 19 -63 5 2 26 58 -5 2 20 -58 4 2 32 65 -5 1 19 -88 7zm108 -7l-20 -114 49 -9c12,-2 21,-3 27,-1 6,1 11,3 15,8 4,5 7,10 8,17 2,9 0,16 -4,23 -4,6 -11,11 -20,14 5,2 10,5 14,8 4,3 9,8 16,16l18 20 -28 5 -21 -22c-7,-8 -12,-13 -15,-15 -2,-2 -5,-3 -7,-3 -3,-1 -7,-1 -12,0l-5 1 8 48 -23 4zm12 -70l17 -3c11,-2 18,-4 20,-5 3,-2 5,-4 6,-6 1,-3 1,-6 1,-9 -1,-4 -3,-7 -5,-9 -3,-2 -6,-3 -10,-3 -2,0 -7,1 -16,3l-18 3 5 29zm129 43l-22 -94 -34 8 -4 -19 89 -21 5 19 -33 7 22 94 -23 6zm157 -50l-24 8 -18 -22 -44 15 0 28 -24 8 5 -124 24 -8 81 95zm-55 -30l-29 -35 -1 45 30 -10zm102 7l-54 -103 44 -23c11,-5 19,-8 25,-9 6,-1 12,0 17,3 6,4 10,8 13,14 4,8 5,16 3,23 -1,7 -7,14 -15,20 6,0 11,1 16,3 4,2 11,5 20,10l23 14 -25 13 -26 -15c-10,-5 -16,-8 -19,-9 -3,-1 -6,-2 -9,-1 -2,0 -6,2 -11,4l-4 2 22 43 -20 11zm-10 -70l15 -8c10,-5 16,-9 18,-11 2,-2 3,-5 4,-7 0,-3 -1,-6 -2,-9 -2,-4 -5,-6 -8,-7 -2,-1 -6,-1 -9,0 -2,0 -7,3 -16,7l-16 9 14 26zm200 -43l-21 14 -23 -16 -39 25 6 27 -21 14 -25 -122 21 -13 102 71zm-61 -15l-37 -27 10 45 27 -18zm70 6l-73 -90 18 -15 29 35 36 -28 -29 -36 18 -14 73 90 -18 15 -32 -40 -36 29 32 39 -18 15zm161 -151l-17 19 -26 -11 -32 34 13 25 -17 18 -54 -112 17 -18 116 45zm-63 0l-42 -17 21 40 21 -23zm72 -8l-92 -71 30 -39c8,-10 14,-16 19,-20 5,-3 11,-4 17,-4 7,1 12,3 18,8 7,5 11,11 12,19 2,7 0,15 -5,24 5,-2 10,-3 15,-4 5,0 13,0 23,1l27 3 -17 22 -30 -2c-11,-1 -18,-1 -21,-1 -4,1 -6,2 -9,3 -2,2 -5,4 -8,9l-3 4 39 29 -15 19zm-38 -60l10 -13c7,-9 11,-15 12,-18 1,-3 1,-6 0,-8 -1,-3 -3,-5 -6,-7 -3,-3 -6,-4 -9,-4 -3,1 -6,2 -9,5 -1,1 -5,5 -11,13l-11 14 24 18zm33 -130l13 -20 62 39c8,5 14,10 18,14 4,6 7,12 7,19 0,7 -2,15 -7,23 -6,10 -14,16 -23,18 -8,1 -18,-1 -28,-7l9 -21c6,4 10,5 14,5 4,0 8,-2 11,-6 3,-4 3,-8 2,-12 -1,-3 -6,-7 -14,-12l-64 -40zm173 -72l-11 23 -29 -3 -21 41 20 21 -12 22 -83 -93 12 -22 124 11zm-60 17l-46 -5 31 34 15 -29z"/>
  </g>
 </g>
</svg>
